<svg xmlns="http://www.w3.org/2000/svg" width="24" height="32" fill="none">
  <path fill="#000" d="M6 25a1 1 0 0 1 1-1h10a1 1 0 1 1 0 2H7a1 1 0 0 1-1-1ZM6 21a1 1 0 0 1 1-1h10a1 1 0 1 1 0 2H7a1 1 0 0 1-1-1ZM6 17a1 1 0 0 1 1-1h6a1 1 0 1 1 0 2H7a1 1 0 0 1-1-1Z" style="fill:#000;fill-opacity:1"/>
  <path fill="#000" fill-rule="evenodd" d="M0 26V6a6 6 0 0 1 6-6h8.28a6 6 0 0 1 4.51 2.05l3.73 4.25A6 6 0 0 1 24 10.25V26a6 6 0 0 1-6 6H6a6 6 0 0 1-6-6Zm22 0a4 4 0 0 1-4 4H6a4 4 0 0 1-4-4V6a4 4 0 0 1 4-4h8v5a3 3 0 0 0 3 3h5v16ZM17.29 3.37 21.3 8H17a1 1 0 0 1-1-1V2.39a4 4 0 0 1 1.29.98Z" clip-rule="evenodd" style="fill:#000;fill-opacity:1"/>
</svg>
