<svg width="16" height="26" viewBox="0 0 16 26" fill="none" xmlns="http://www.w3.org/2000/svg">
<path d="M9 1C9 0.447715 8.55228 0 8 0C7.44772 0 7 0.447715 7 1H8H9ZM7.29289 25.7071C7.68342 26.0976 8.31658 26.0976 8.70711 25.7071L15.0711 19.3431C15.4616 18.9526 15.4616 18.3195 15.0711 17.9289C14.6805 17.5384 14.0474 17.5384 13.6569 17.9289L8 23.5858L2.34315 17.9289C1.95262 17.5384 1.31946 17.5384 0.928932 17.9289C0.538408 18.3195 0.538408 18.9526 0.928932 19.3431L7.29289 25.7071ZM8 1H7V25H8H9V1H8Z" fill="black" style="fill:black;fill-opacity:1;"/>
</svg>
